<svg xmlns="http://www.w3.org/2000/svg" version="1.1" xmlns:xlink="http://www.w3.org/1999/xlink" xmlns:svgjs="http://svgjs.dev/svgjs" width="2000" height="1500" viewBox="0 0 2000 1500"><rect width="2000" height="1500" fill="#102e44"></rect><g transform="matrix(0.3806623524933384,0,0,0.3806623524933384,619.5349480781651,250.40485829959516)"><svg viewBox="0 0 188 247" data-background-color="#102e44" preserveAspectRatio="xMidYMid meet" height="2627" width="2000" xmlns="http://www.w3.org/2000/svg" xmlns:xlink="http://www.w3.org/1999/xlink"><g id="tight-bounds" transform="matrix(1,0,0,1,-0.04872100852594485,-0.09999999999999432)"><svg viewBox="0 0 188.09744201705192 247.2" height="247.2" width="188.09744201705192"><g><svg viewBox="0 0 395.52 519.7973079885714" height="247.2" width="188.09744201705192"><g transform="matrix(1,0,0,1,0,297.0230222742857)"><svg viewBox="0 0 395.52 222.7742857142857" height="222.7742857142857" width="395.52"><g id="textblocktransform"><svg viewBox="0 0 395.52 222.7742857142857" height="222.7742857142857" width="395.52" id="textblock"><g><svg viewBox="0 0 395.52 222.7742857142857" height="222.7742857142857" width="395.52"><g transform="matrix(1,0,0,1,0,0)"><svg width="395.52" viewBox="2.3 -37.55 67.2 37.849999999999994" height="222.7742857142857" data-palette-color="#ffffff"><path d="M6.45-2.95L6.45-34.05 2.35-34.65 2.35-37.15 9.1-37.15Q10.8-37.15 13.4-37.35L13.4-37.35Q15.8-37.55 16.95-37.55L16.95-37.55Q23.85-37.55 26.83-35.4 29.8-33.25 29.8-29.1L29.8-29.1Q29.8-25.55 27.75-23 25.7-20.45 22.15-19.8L22.15-19.8Q26.95-19.9 29.7-17.55 32.45-15.2 32.45-11.15L32.45-11.15Q32.45-6.1 28.88-2.9 25.3 0.3 17.05 0.3L17.05 0.3Q15.25 0.3 13.6 0.15L13.6 0.15Q9.7 0 8.95 0L8.95 0 2.3 0 2.3-2.45 6.45-2.95ZM11.75-20.75Q12.45-20.7 14.6-20.7L14.6-20.7 17.35-20.7Q20.85-20.7 22.65-22.65 24.45-24.6 24.45-28.2L24.45-28.2Q24.45-31.7 22.65-33.33 20.85-34.95 16.5-34.95L16.5-34.95Q14.7-34.95 12.8-34.75L12.8-34.75 11.75-34.65 11.75-20.75ZM11.75-2.8Q12.9-2.4 16.95-2.4L16.95-2.4Q22-2.4 24.28-4.48 26.55-6.55 26.55-10.45L26.55-10.45Q26.55-14.3 24.58-16.05 22.6-17.8 18.2-17.8L18.2-17.8Q13.1-17.8 11.75-17.7L11.75-17.7 11.75-2.8ZM36.7-2.95L48.75-37.45 54.25-37.45 66.4-2.95 69.5-2.45 69.5 0 56.3 0 56.3-2.45 60.45-2.95 58.1-10.35 43.5-10.35 41.15-2.95 45.45-2.45 45.45 0 33.6 0 33.6-2.45 36.7-2.95ZM57.15-13.3L51.9-29.45 50.65-33.85 49.45-29.35 44.4-13.3 57.15-13.3Z" opacity="1" transform="matrix(1,0,0,1,0,0)" fill="#ffffff" class="wordmark-text-0" data-fill-palette-color="primary" id="text-0"></path></svg></g></svg></g></svg></g></svg></g><g transform="matrix(1,0,0,1,75.54432,0)"><svg viewBox="0 0 244.43135999999998 244.43135999999998" height="244.43135999999998" width="244.43135999999998"><g><svg></svg></g><g id="icon-0"><svg viewBox="0 0 244.43135999999998 244.43135999999998" height="244.43135999999998" width="244.43135999999998"><g><path transform="scale(2.44431,2.44431)" d="M30 100c-16.569 0-30-13.431-30-30v-40c0-16.569 13.431-30 30-30h40c16.569 0 30 13.431 30 30v40c0 16.569-13.431 30-30 30z" fill="#b2fcfb" fill-rule="nonzero" stroke="none" stroke-width="1" stroke-linecap="butt" stroke-linejoin="miter" stroke-miterlimit="10" stroke-dasharray="" stroke-dashoffset="0" font-family="none" font-weight="none" font-size="none" text-anchor="none" style="mix-blend-mode: normal" data-fill-palette-color="accent"></path></g><g transform="matrix(1,0,0,1,48.886272000000005,48.886272000000005)"><svg viewBox="0 0 146.65881599999997 146.65881599999997" height="146.65881599999997" width="146.65881599999997"><g><svg xmlns="http://www.w3.org/2000/svg" xmlns:xlink="http://www.w3.org/1999/xlink" version="1.1" x="0" y="0" viewBox="2 2 60 60" style="enable-background:new 0 0 64 64;" xml:space="preserve" height="146.65881599999997" width="146.65881599999997" class="icon-cg-0" data-fill-palette-color="quaternary" id="cg-0"><path d="M20 38c-0.278 0-0.542 0.115-0.732 0.318-0.189 0.203-0.285 0.476-0.266 0.753l1 14C20.04 53.595 20.476 54 21 54h22c0.524 0 0.96-0.405 0.998-0.929l1-14c0.02-0.277-0.077-0.55-0.266-0.753C44.542 38.115 44.278 38 44 38h-2.103l-0.936-3.274c-0.07-0.245-0.23-0.454-0.449-0.584l-3.89-2.321C37.482 30.782 38 29.451 38 28c0-3.309-2.691-6-6-6s-6 2.691-6 6c0 1.451 0.518 2.782 1.377 3.821l-3.89 2.321c-0.219 0.13-0.379 0.339-0.449 0.584L22.103 38H20zM42.069 52H21.931l-0.857-12h1.783 18.286 1.783L42.069 52zM32 24c2.206 0 4 1.794 4 4 0 1.31-0.642 2.465-1.618 3.195-0.002 0.001-0.004 0.002-0.006 0.003-0.164 0.122-0.335 0.226-0.511 0.319-0.022 0.012-0.043 0.024-0.066 0.036-0.171 0.087-0.347 0.16-0.527 0.22-0.03 0.01-0.06 0.018-0.09 0.028-0.77 0.24-1.595 0.24-2.365 0-0.03-0.009-0.06-0.018-0.089-0.028-0.179-0.06-0.356-0.133-0.527-0.22-0.022-0.011-0.044-0.024-0.066-0.036-0.176-0.093-0.348-0.198-0.511-0.319-0.002-0.001-0.004-0.002-0.006-0.003C28.642 30.465 28 29.31 28 28 28 25.794 29.794 24 32 24zM24.853 35.655l4.141-2.471C29.879 33.7 30.904 34 32 34s2.121-0.3 3.006-0.815l4.141 2.471L39.817 38H24.183L24.853 35.655z" fill="#102e44" data-fill-palette-color="quaternary"></path><path d="M61 56H3c-0.552 0-1 0.447-1 1v4c0 0.553 0.448 1 1 1h58c0.552 0 1-0.447 1-1v-4C62 56.447 61.552 56 61 56zM60 60H4v-2h56V60z" fill="#102e44" data-fill-palette-color="quaternary"></path><rect x="47" y="45" width="2" height="2" fill="#102e44" data-fill-palette-color="quaternary"></rect><rect x="51" y="45" width="2" height="2" fill="#102e44" data-fill-palette-color="quaternary"></rect><rect x="55" y="45" width="2" height="2" fill="#102e44" data-fill-palette-color="quaternary"></rect><rect x="55" y="41" width="2" height="2" fill="#102e44" data-fill-palette-color="quaternary"></rect><rect x="55" y="37" width="2" height="2" fill="#102e44" data-fill-palette-color="quaternary"></rect><rect x="55" y="33" width="2" height="2" fill="#102e44" data-fill-palette-color="quaternary"></rect><rect x="55" y="29" width="2" height="2" fill="#102e44" data-fill-palette-color="quaternary"></rect><rect x="55" y="25" width="2" height="2" fill="#102e44" data-fill-palette-color="quaternary"></rect><rect x="55" y="21" width="2" height="2" fill="#102e44" data-fill-palette-color="quaternary"></rect><rect x="15" y="45" width="2" height="2" fill="#102e44" data-fill-palette-color="quaternary"></rect><rect x="11" y="45" width="2" height="2" fill="#102e44" data-fill-palette-color="quaternary"></rect><rect x="7" y="45" width="2" height="2" fill="#102e44" data-fill-palette-color="quaternary"></rect><rect x="7" y="41" width="2" height="2" fill="#102e44" data-fill-palette-color="quaternary"></rect><rect x="7" y="37" width="2" height="2" fill="#102e44" data-fill-palette-color="quaternary"></rect><rect x="7" y="33" width="2" height="2" fill="#102e44" data-fill-palette-color="quaternary"></rect><rect x="7" y="28" width="2" height="2" fill="#102e44" data-fill-palette-color="quaternary"></rect><rect x="7" y="24" width="2" height="2" fill="#102e44" data-fill-palette-color="quaternary"></rect><rect x="7" y="20" width="2" height="2" fill="#102e44" data-fill-palette-color="quaternary"></rect><rect x="30" y="45" width="4" height="2" fill="#102e44" data-fill-palette-color="quaternary"></rect><path d="M9.293 6.293l-3 3c-0.391 0.391-0.391 1.023 0 1.414l3 3 1.414-1.414L8.414 10l2.293-2.293L9.293 6.293z" fill="#102e44" data-fill-palette-color="quaternary"></path><path d="M20.707 6.293l-1.414 1.414L21.586 10l-2.293 2.293 1.414 1.414 3-3c0.391-0.391 0.391-1.023 0-1.414L20.707 6.293z" fill="#102e44" data-fill-palette-color="quaternary"></path><rect x="10.528" y="9" transform="matrix(0.4472 -0.8944 0.8944 0.4472 -0.6525 18.9443)" width="8.944" height="2" fill="#102e44" data-fill-palette-color="quaternary"></rect><path d="M3 18h24c0.552 0 1-0.447 1-1V3c0-0.553-0.448-1-1-1H3C2.448 2 2 2.447 2 3v14C2 17.553 2.448 18 3 18zM4 4h22v12H4V4z" fill="#102e44" data-fill-palette-color="quaternary"></path><path d="M53 7c-2.206 0-4 1.794-4 4s1.794 4 4 4 4-1.794 4-4S55.206 7 53 7zM53 13c-1.103 0-2-0.897-2-2s0.897-2 2-2 2 0.897 2 2S54.103 13 53 13z" fill="#102e44" data-fill-palette-color="quaternary"></path><path d="M61 8h-0.584c-0.017-0.041-0.033-0.082-0.05-0.122l0.413-0.413c0.188-0.188 0.293-0.441 0.293-0.707 0-0.265-0.105-0.52-0.293-0.707L57.95 3.222c-0.375-0.375-1.039-0.375-1.415 0l-0.413 0.413C56.082 3.618 56.041 3.601 56 3.584V3c0-0.553-0.448-1-1-1h-4c-0.552 0-1 0.447-1 1v0.584c-0.041 0.017-0.082 0.034-0.123 0.051l-0.413-0.413c-0.188-0.188-0.442-0.293-0.708-0.293s-0.52 0.105-0.707 0.293l-2.829 2.829c-0.188 0.188-0.293 0.442-0.293 0.707 0 0.266 0.105 0.52 0.293 0.707l0.413 0.413c-0.017 0.04-0.034 0.081-0.05 0.122H45c-0.552 0-1 0.447-1 1v4c0 0.553 0.448 1 1 1h0.584c0.017 0.041 0.034 0.082 0.051 0.123l-0.413 0.412c-0.188 0.188-0.293 0.441-0.293 0.707 0 0.265 0.105 0.52 0.293 0.707l2.829 2.829c0.375 0.375 1.039 0.375 1.415 0l0.413-0.413c0.041 0.017 0.082 0.034 0.123 0.051V19c0 0.553 0.448 1 1 1h4c0.552 0 1-0.447 1-1v-0.584c0.041-0.017 0.082-0.034 0.123-0.051l0.413 0.413c0.188 0.188 0.442 0.293 0.708 0.293s0.52-0.105 0.707-0.293l2.829-2.829c0.188-0.188 0.293-0.442 0.293-0.707 0-0.266-0.105-0.52-0.293-0.707l-0.413-0.412c0.017-0.041 0.034-0.082 0.051-0.123H61c0.552 0 1-0.447 1-1V9C62 8.447 61.552 8 61 8zM60 12h-0.294c-0.442 0-0.833 0.291-0.958 0.715-0.12 0.404-0.278 0.787-0.468 1.138-0.211 0.39-0.141 0.872 0.172 1.185l0.205 0.205-1.414 1.415-0.205-0.206c-0.312-0.312-0.794-0.381-1.185-0.172-0.349 0.189-0.732 0.347-1.139 0.469C54.291 16.874 54 17.264 54 17.706V18h-2v-0.294c0-0.442-0.291-0.832-0.714-0.958-0.407-0.122-0.79-0.279-1.139-0.469-0.389-0.21-0.872-0.141-1.185 0.172l-0.205 0.206-1.414-1.415 0.205-0.205c0.313-0.312 0.384-0.795 0.172-1.185-0.19-0.351-0.348-0.733-0.468-1.138C47.126 12.291 46.736 12 46.294 12H46v-2h0.294c0.442 0 0.833-0.291 0.958-0.715 0.12-0.403 0.277-0.786 0.469-1.139 0.211-0.39 0.141-0.871-0.173-1.184l-0.205-0.205 1.414-1.415 0.205 0.206c0.313 0.313 0.797 0.384 1.185 0.172 0.349-0.189 0.732-0.347 1.139-0.469C51.709 5.126 52 4.736 52 4.294V4h2v0.294c0 0.442 0.291 0.832 0.714 0.958 0.407 0.122 0.79 0.279 1.139 0.469 0.389 0.211 0.871 0.141 1.185-0.172l0.205-0.206 1.414 1.415-0.205 0.205c-0.313 0.312-0.384 0.794-0.173 1.184 0.191 0.353 0.349 0.735 0.469 1.139C58.874 9.709 59.264 10 59.706 10H60V12z" fill="#102e44" data-fill-palette-color="quaternary"></path><rect x="23.5" y="19.379" transform="matrix(0.7071 -0.7071 0.7071 0.7071 -8.0269 23.6213)" width="2" height="4.243" fill="#102e44" data-fill-palette-color="quaternary"></rect><rect x="37.379" y="20.5" transform="matrix(0.7071 -0.7071 0.7071 0.7071 -3.6335 34.2279)" width="4.243" height="2" fill="#102e44" data-fill-palette-color="quaternary"></rect><rect x="31" y="15" width="2" height="3" fill="#102e44" data-fill-palette-color="quaternary"></rect></svg></g></svg></g></svg></g></svg></g><g></g></svg></g><defs></defs></svg><rect width="188.09744201705192" height="247.2" fill="none" stroke="none" visibility="hidden"></rect></g></svg></g></svg>