<svg xmlns="http://www.w3.org/2000/svg" version="1.1" xmlns:xlink="http://www.w3.org/1999/xlink" xmlns:svgjs="http://svgjs.dev/svgjs" width="1500" height="998" viewBox="0 0 1500 998"><g transform="matrix(1,0,0,1,0.2995330473405602,0.4040485829959266)"><svg viewBox="0 0 371 247" data-background-color="#333366" preserveAspectRatio="xMidYMid meet" height="998" width="1500" xmlns="http://www.w3.org/2000/svg" xmlns:xlink="http://www.w3.org/1999/xlink"><g id="tight-bounds" transform="matrix(1,0,0,1,-0.07408450704224379,-0.09999999999999432)"><svg viewBox="0 0 371.1481690140845 247.2" height="247.2" width="371.1481690140845"><g><svg viewBox="0 0 371.1481690140845 247.2" height="247.2" width="371.1481690140845"><g><svg viewBox="0 0 371.1481690140845 247.2" height="247.2" width="371.1481690140845"><g id="textblocktransform"><svg viewBox="0 0 371.1481690140845 247.2" height="247.2" width="371.1481690140845" id="textblock"><g><svg viewBox="0 0 371.1481690140845 247.2" height="247.2" width="371.1481690140845"><g transform="matrix(1,0,0,1,0,0)"><svg width="371.1481690140845" viewBox="3.25 -35.5 53.3 35.5" height="247.2" data-palette-color="#ffffff"><path d="M7.9-23.75L7.9 0 3.25 0 3.25-23.85Q3.25-29 6.58-32.25 9.9-35.5 14.8-35.5L14.8-35.5Q20.2-35.5 22.93-32.77 25.65-30.05 25.65-26.1L25.65-26.1Q25.65-21.05 20.95-18.85L20.95-18.85 20.95-18.65Q27.4-16.8 27.4-9.7L27.4-9.7Q27.4 0 15.95 0L15.95 0 9.7 0 9.7-4.4 15.9-4.4Q19.35-4.4 20.95-5.8 22.55-7.2 22.55-10.3L22.55-10.3Q22.55-13 20.83-14.45 19.1-15.9 16.15-15.9L16.15-15.9 11.2-15.9 11.2-20.05 14.4-20.05Q17.1-20.05 19.03-21.53 20.95-23 20.95-25.5L20.95-25.5Q20.95-27.9 19.48-29.5 18-31.1 14.7-31.1L14.7-31.1Q11.7-31.1 9.8-29.23 7.9-27.35 7.9-23.75L7.9-23.75ZM37.1-12.8L37.1 0 32.65 0 32.65-22Q32.65-27.4 36.12-31.2 39.6-35 45.1-35L45.1-35 56.55-35 56.55 0 51.85 0 51.85-30.6 45.1-30.6Q41.45-30.6 39.27-28.45 37.1-26.3 37.1-21.6L37.1-21.6 37.1-17.35Q39.9-20.3 45.1-20.3L45.1-20.3 49.65-20.3 49.65-15.9 45.1-15.9Q42.2-15.9 40.37-15.2 38.55-14.5 37.1-12.8L37.1-12.8Z" opacity="1" transform="matrix(1,0,0,1,0,0)" fill="#ffffff" class="wordmark-text-0" data-fill-palette-color="primary" id="text-0"></path></svg></g></svg></g></svg></g></svg></g><g></g></svg></g><defs></defs></svg><rect width="371.1481690140845" height="247.2" fill="none" stroke="none" visibility="hidden"></rect></g></svg></g></svg>